<svg width="110" height="86" viewBox="0 0 110 86" fill="none" xmlns="http://www.w3.org/2000/svg">
<path d="M4 27.4679V28.9293C4 32.8606 4.59323 36.7694 5.75966 40.5237V40.5237L7.41853 46.2588C7.72424 47.3157 8.19556 48.3175 8.81494 49.2268L10.3403 51.4663C11.3249 52.9119 12.9608 53.7769 14.7099 53.7769V53.7769C16.8816 53.7769 18.8324 52.4489 19.6286 50.4284L21.5509 45.5506C21.7527 45.0385 21.9137 44.5112 22.0323 43.9737L23.5534 37.0835C23.7208 36.3253 24.3928 35.7855 25.1693 35.7855V35.7855C26.0832 35.7855 26.824 36.5264 26.824 37.4402V43.1982C26.824 44.2418 27.0444 45.2736 27.4707 46.2261L29.6561 51.1097C30.3823 52.7324 31.9942 53.7769 33.7719 53.7769V53.7769C35.5852 53.7769 37.222 52.6908 37.9267 51.0201L40.5579 44.7812L48.28 19.02L49.0411 15.2191C49.2221 14.3152 49.3133 13.3957 49.3133 12.4739V9.02929C49.3133 8.04013 48.9722 7.08124 48.3474 6.31435V6.31435C46.7032 4.29607 43.6565 4.19099 41.8772 6.09118L40.9695 7.06047C40.696 7.35261 40.4554 7.67394 40.2521 8.01867L39.7745 8.82847C38.9968 10.1472 38.4409 11.5847 38.1292 13.0836L37.8561 14.3965C37.6597 15.3404 37.6026 16.308 37.6864 17.2684L40.5655 50.2721C41.0029 55.2862 48.1245 55.8265 49.3133 50.9357V50.9357L53.0321 35.6354C53.7862 32.5324 58.0832 32.236 59.2562 35.2062V35.2062C59.4074 35.589 59.485 35.9968 59.485 36.4084V50.2712C59.485 51.5532 60.5242 52.5924 61.8061 52.5924V52.5924C62.8205 52.5924 63.7173 51.9337 64.0209 50.9659L67.2961 40.5237L69.155 30.2796C69.3926 28.9703 70.9104 28.3518 71.9954 29.1221V29.1221C72.5912 29.5451 72.8758 30.2837 72.7178 30.9971L70.0614 42.9922C69.8008 44.1692 69.8132 45.3903 70.0977 46.5618L70.4435 47.9857C71.1 50.6891 73.5208 52.5924 76.3028 52.5924V52.5924C77.9563 52.5924 79.5374 51.9133 80.6758 50.714L81.6147 49.7249C82.7762 48.5013 83.5791 46.982 83.9357 45.333L85.6978 37.1829C85.8825 36.3289 86.5408 35.6565 87.3907 35.4538V35.4538C88.7148 35.1379 90.0175 36.0499 90.1737 37.4022L90.721 42.14V43.774C90.721 47.1715 90.3916 50.5611 89.7375 53.8951L87.3379 66.125C86.4745 70.526 84.0676 74.4738 80.5511 77.2573V77.2573C76.7541 80.2628 71.9445 81.6889 67.1229 81.2389L59.8466 80.5598C57.9136 80.3794 56.0749 79.6398 54.5555 78.4313L54.1441 78.1041C50.4373 75.1559 49.5043 69.9096 51.9673 65.8641V65.8641C53.4331 63.4565 55.9024 61.8342 58.694 61.4445L72.9785 59.4507H91.0057C93.4488 59.4507 95.8353 58.7154 97.8547 57.3403V57.3403C99.5507 56.1855 100.927 54.6207 101.856 52.7913L102.798 50.9357V50.9357C104.356 47.8618 105.167 44.4643 105.167 41.0184V40.5237" stroke="#212121" stroke-width="8" stroke-linecap="round"/>
</svg>
